<svg width="105" height="105" viewBox="0 0 105 105" fill="none" xmlns="http://www.w3.org/2000/svg">
<rect width="105" height="105" rx="20" fill="#97A4F7"/>
<path fill-rule="evenodd" clip-rule="evenodd" d="M74.4438 49.5928L74.9649 62.1586C63.1519 74.2033 41.8421 72.9293 31.9979 62.564L31.9399 50.2877L52.3232 58.8579L74.4438 49.5928Z" fill="#2B3B4E"/>
<path fill-rule="evenodd" clip-rule="evenodd" d="M17 47.3342L52.3233 35L87.7046 47.3342L52.3233 59.6684L17 47.3342Z" fill="#324A5E"/>
<path fill-rule="evenodd" clip-rule="evenodd" d="M52.7867 43.9756L28.9869 50.4033C28.7553 50.4612 28.6395 50.577 28.6395 50.8087L28.5237 61.4057C29.2765 61.6952 29.7976 62.5059 29.7976 63.4324C29.7976 64.6485 28.929 65.5171 27.7709 65.5171C26.6707 65.5171 25.7441 64.5906 25.7441 63.4324C25.7441 62.5638 26.2074 61.811 26.9602 61.4636L27.1339 49.8822C27.076 49.4768 27.2497 49.2452 27.6551 49.0715L51.7444 42.6438C52.7288 42.4121 53.5974 43.3386 52.7867 43.9756Z" fill="#FF7058"/>
</svg>
