<svg width="105" height="105" viewBox="0 0 105 105" fill="none" xmlns="http://www.w3.org/2000/svg">
<rect width="105" height="105" rx="20" fill="#97D7F7"/>
<path fill-rule="evenodd" clip-rule="evenodd" d="M26.653 30H77.4169C80.7806 30 83.4962 32.7111 83.4962 36.0386V67.4024C83.4962 67.6796 83.4653 67.9569 83.4345 68.2033H20.6354C20.6045 67.9569 20.5737 67.6796 20.5737 67.4024V36.0386C20.5737 32.7111 23.3202 30 26.653 30Z" fill="#3A3A3A"/>
<path fill-rule="evenodd" clip-rule="evenodd" d="M26.6527 33.4502C25.2333 33.4502 24.0605 34.6209 24.0605 36.0383V67.402C24.0605 67.6792 24.0915 67.9565 24.1839 68.203H79.8853C79.9779 67.9565 80.0396 67.6792 80.0396 67.402V36.0383C80.0396 34.6209 78.8671 33.4502 77.4167 33.4502H26.6527Z" fill="#7AB0CB"/>
<path fill-rule="evenodd" clip-rule="evenodd" d="M32.3613 68.203H79.8849C79.9775 67.9565 80.0392 67.6792 80.0392 67.402V36.0383C80.0392 34.6209 78.8666 33.4502 77.4163 33.4502H71.4603L32.3613 68.203Z" fill="#89BDD7"/>
<path fill-rule="evenodd" clip-rule="evenodd" d="M15.0492 68.2031H89.0194C89.6058 68.2031 90.0687 68.6961 90.0687 69.2816C90.0687 72.1468 87.7233 74.4883 84.8534 74.4883H19.2461C16.3762 74.4883 14 72.1468 14 69.2816C14 68.6961 14.4938 68.2031 15.0492 68.2031Z" fill="#494949"/>
<path d="M63.6223 68.2031H40.4775V70.637H63.6223V68.2031Z" fill="#3A3A3A"/>
<path d="M74.0531 37.3008H30.0474V59.4526H74.0531V37.3008Z" fill="white"/>
<path fill-rule="evenodd" clip-rule="evenodd" d="M37.1755 62.8107H72.0776C72.6331 62.8107 73.0959 63.273 73.0959 63.8275C73.0959 64.382 72.6331 64.8443 72.0776 64.8443H37.1755C36.62 64.8443 36.1571 64.382 36.1571 63.8275C36.1571 63.273 36.62 62.8107 37.1755 62.8107ZM31.3739 61.7017L34.3056 63.6118C34.429 63.7043 34.4598 63.8582 34.3981 63.9507C34.3673 63.9816 34.3364 64.0124 34.3056 64.0431L31.3739 65.9533C31.2505 66.015 31.0962 65.9842 31.0344 65.8918C31.0036 65.8301 30.9727 65.7993 30.9727 65.7376V61.9173C30.9727 61.7633 31.0962 61.6709 31.2196 61.6709C31.2813 61.6709 31.343 61.6709 31.3739 61.7017Z" fill="white"/>
<path fill-rule="evenodd" clip-rule="evenodd" d="M52.0501 40.167C56.5863 40.167 60.2586 43.8641 60.2586 48.3929C60.2586 52.9219 56.5863 56.5883 52.0501 56.5883C47.5136 56.5883 43.8105 52.9219 43.8105 48.3929C43.8105 43.8641 47.5136 40.167 52.0501 40.167Z" fill="#7AB0CB"/>
<path d="M50.1367 43.5866L56.8023 47.9307C57.0492 48.0847 57.1418 48.4237 56.9566 48.6701C56.9258 48.7626 56.864 48.7933 56.8023 48.855L50.1058 53.1991C49.8589 53.3531 49.5195 53.2916 49.3343 53.045C49.2726 52.9525 49.2417 52.8293 49.2417 52.7369V44.0487C49.2417 43.7406 49.4886 43.4941 49.7972 43.4941C49.9515 43.4941 50.0441 43.5249 50.1367 43.5866Z" fill="white"/>
</svg>
