<svg width="105" height="105" viewBox="0 0 105 105" fill="none" xmlns="http://www.w3.org/2000/svg">
<rect width="105" height="105" rx="20" fill="#010B0E"/>
<path fill-rule="evenodd" clip-rule="evenodd" d="M43.9287 66.0266H60.285C57.7293 63.187 56.4799 59.4387 55.8551 56.2015C55.0601 52.51 55.1737 49.5 55.1737 49.5H49.0969C49.0969 49.5 49.2104 52.4532 48.4721 56.2015C47.7906 59.4955 46.5412 63.187 43.9287 66.0266Z" fill="#F9B54C"/>
<path fill-rule="evenodd" clip-rule="evenodd" d="M43.1906 51.4305C43.0202 51.4305 42.8499 51.4305 42.7363 51.3169L36.0348 47.8525C33.0815 46.3191 30.8666 43.5363 30.0715 40.3559L28.1406 32.8025C27.7998 31.5531 28.0838 30.1333 28.9357 29.111C29.7876 28.0319 30.9802 27.4072 32.4 27.4072H43.1906C43.7585 27.4072 44.2697 27.8616 44.2697 28.5431C44.2697 29.111 43.8153 29.6221 43.1906 29.6221H32.4C31.7185 29.6221 31.0938 29.9629 30.6395 30.474C30.2419 30.9852 30.0715 31.6667 30.2419 32.3482L32.1729 39.9016C32.8544 42.514 34.6149 44.7289 37.057 45.9784L43.8153 49.4427C44.2697 49.7267 44.4968 50.4082 44.2129 50.8625C43.9857 51.2033 43.5881 51.4305 43.1906 51.4305Z" fill="#F9B54C"/>
<path fill-rule="evenodd" clip-rule="evenodd" d="M60.91 51.4305C60.5124 51.4305 60.1717 51.2033 59.9445 50.8625C59.6605 50.4082 59.8877 49.6699 60.3988 49.4427L67.1004 45.9784C69.5425 44.7289 71.3598 42.4573 71.9845 39.9016L73.9155 32.3482C74.0859 31.7235 73.9723 31.0419 73.5179 30.474C73.1204 29.9629 72.4389 29.6221 71.7573 29.6221H60.91C60.3421 29.6221 59.8309 29.1678 59.8309 28.5431C59.8309 27.9184 60.2853 27.4072 60.91 27.4072H71.7573C73.0636 27.4072 74.3698 28.0319 75.2217 29.111C76.0168 30.1901 76.3576 31.5531 75.96 32.8025L74.0291 40.3559C73.234 43.5363 71.0758 46.3191 68.0658 47.8525L61.3643 51.3169C61.2507 51.4305 61.0236 51.4305 60.91 51.4305Z" fill="#F9B54C"/>
<path fill-rule="evenodd" clip-rule="evenodd" d="M52.0499 57.394C44.8372 57.394 38.9308 51.5444 38.874 44.3317L38.7036 24H52.1066H65.3393L65.1689 44.3885C65.1689 44.5021 65.1689 44.6157 65.1689 44.7293V44.7861C65.1689 44.8997 65.1689 45.0132 65.1689 45.1268C65.1689 45.2404 65.1689 45.354 65.1122 45.4676C65.1122 45.5812 65.1122 45.6948 65.1122 45.8083C65.1122 45.9219 65.0553 46.0355 65.0553 46.1491C65.0553 46.3763 64.9985 46.5466 64.9417 46.7738V46.8306C64.9417 46.9442 64.885 47.0578 64.885 47.1714C64.8282 47.5121 64.7146 47.7393 64.6578 48.08H64.601C64.601 48.1936 64.5442 48.3072 64.5442 48.4208C62.8972 53.5889 57.8995 57.394 52.0499 57.394Z" fill="#FFD05B"/>
<path d="M60.9092 65.5156H43.1899V67.5601H60.9092V65.5156Z" fill="#FEE187"/>
<path fill-rule="evenodd" clip-rule="evenodd" d="M38.7036 70.1734H65.3393C65.3393 68.4696 63.9763 67.0498 62.2157 67.0498H41.884C40.1802 67.0498 38.7036 68.4696 38.7036 70.1734Z" fill="#FFD05B"/>
<path d="M69.4286 70.002H34.6147V81.7012H69.4286V70.002Z" fill="#E6E9EE"/>
<path d="M59.4895 73.3535H44.6099V78.3513H59.4895V73.3535Z" fill="#BA7958"/>
<path fill-rule="evenodd" clip-rule="evenodd" d="M45.8598 76.4205C46.1437 76.4205 46.3141 76.1366 46.3141 75.9094C46.3141 75.6254 46.0869 75.4551 45.8598 75.4551C45.5758 75.4551 45.3486 75.6822 45.3486 75.9094C45.3486 76.1366 45.6326 76.4205 45.8598 76.4205Z" fill="#FEFEFE"/>
<path fill-rule="evenodd" clip-rule="evenodd" d="M58.4108 76.4205C58.6948 76.4205 58.8652 76.1366 58.8652 75.9094C58.8652 75.6254 58.638 75.4551 58.4108 75.4551C58.1269 75.4551 57.9565 75.6822 57.9565 75.9094C57.8997 76.1366 58.1269 76.4205 58.4108 76.4205Z" fill="#FEFEFE"/>
<path d="M53.092 45.3506C52.9343 44.8773 52.7709 44.4097 52.6019 43.948C52.4329 43.4862 52.2695 43.0129 52.1118 42.5281H47.1771C47.0194 43.0129 46.856 43.492 46.687 43.9653C46.5293 44.4271 46.3716 44.8888 46.2139 45.3506H44C44.4394 44.0692 44.8562 42.8859 45.2506 41.8008C45.6449 40.7157 46.028 39.6882 46.3997 38.7186C46.7828 37.7489 47.1602 36.8253 47.532 35.948C47.9038 35.0706 48.2869 34.2048 48.6812 33.3506H50.6923C51.0866 34.2048 51.4696 35.0706 51.8414 35.948C52.2132 36.8253 52.585 37.7489 52.9568 38.7186C53.3399 39.6882 53.7285 40.7157 54.1229 41.8008C54.5285 42.8859 54.951 44.0692 55.3903 45.3506H53.092ZM49.6445 35.6709C49.3853 36.2828 49.0868 37.0274 48.7488 37.9047C48.4221 38.782 48.0784 39.7344 47.7179 40.7618H51.571C51.2105 39.7344 50.8612 38.7763 50.5233 37.8874C50.1853 36.9985 49.8923 36.2597 49.6445 35.6709Z" fill="#010B0E"/>
<path d="M56.8706 33.3506H59V45.3506H56.8706V33.3506Z" fill="#010B0E"/>
</svg>
