<svg width="105" height="105" viewBox="0 0 105 105" fill="none" xmlns="http://www.w3.org/2000/svg">
<rect width="105" height="105" rx="20" fill="#EC8AF1"/>
<path fill-rule="evenodd" clip-rule="evenodd" d="M69.4201 47.515C68.8066 48.9142 68.4998 50.4092 68.4998 52C68.4998 50.4092 68.2029 48.9142 67.6086 47.515C66.9955 46.1158 66.1712 44.8987 65.1363 43.8638C64.101 42.8287 62.8842 42.0142 61.485 41.42C60.0858 40.8067 58.5905 40.5 57 40.5C58.5905 40.5 60.0858 40.2029 61.485 39.6087C62.8842 38.9954 64.101 38.1713 65.1363 37.1363C66.1712 36.1013 66.9955 34.8842 67.6086 33.485C68.2029 32.0858 68.4998 30.5908 68.4998 29C68.4998 30.5908 68.8066 32.0858 69.4201 33.485C70.0139 34.8842 70.8287 36.1013 71.8636 37.1363C72.8985 38.1713 74.1158 38.9954 75.515 39.6087C76.9142 40.2029 78.409 40.5 80 40.5C78.409 40.5 76.9142 40.8067 75.515 41.42C74.1158 42.0142 72.8985 42.8287 71.8636 43.8638C70.8287 44.8987 70.0139 46.1158 69.4201 47.515Z" fill="white"/>
<path fill-rule="evenodd" clip-rule="evenodd" d="M53.4801 32.66C53.1599 33.39 52.9999 34.17 52.9999 35C52.9999 34.17 52.845 33.39 52.5349 32.66C52.215 31.93 51.785 31.295 51.2451 30.755C50.7049 30.215 50.07 29.79 49.34 29.48C48.61 29.16 47.8298 29 47 29C47.8298 29 48.61 28.845 49.34 28.535C50.07 28.215 50.7049 27.785 51.2451 27.245C51.785 26.705 52.215 26.07 52.5349 25.34C52.845 24.61 52.9999 23.83 52.9999 23C52.9999 23.83 53.1599 24.61 53.4801 25.34C53.7899 26.07 54.215 26.705 54.7549 27.245C55.2949 27.785 55.93 28.215 56.66 28.535C57.39 28.845 58.1699 29 59 29C58.1699 29 57.39 29.16 56.66 29.48C55.93 29.79 55.2949 30.215 54.7549 30.755C54.215 31.295 53.7899 31.93 53.4801 32.66Z" fill="white"/>
<path fill-rule="evenodd" clip-rule="evenodd" d="M50.9203 73.64C49.6398 76.56 48.9995 79.68 48.9995 83C48.9995 79.68 48.3799 76.56 47.1397 73.64C45.8601 70.72 44.14 68.18 41.9802 66.02C39.8195 63.86 37.28 62.16 34.36 60.92C31.44 59.64 28.3194 59 25 59C28.3194 59 31.44 58.3801 34.36 57.14C37.28 55.86 39.8195 54.14 41.9802 51.9801C44.14 49.82 45.8601 47.28 47.1397 44.36C48.3799 41.44 48.9995 38.32 48.9995 35C48.9995 38.32 49.6398 41.44 50.9203 44.36C52.1595 47.28 53.86 49.82 56.0198 51.9801C58.1796 54.14 60.7199 55.86 63.64 57.14C66.56 58.3801 69.6797 59 73 59C69.6797 59 66.56 59.64 63.64 60.92C60.7199 62.16 58.1796 63.86 56.0198 66.02C53.86 68.18 52.1595 70.72 50.9203 73.64Z" fill="white"/>
</svg>
