<svg width="105" height="105" viewBox="0 0 105 105" fill="none" xmlns="http://www.w3.org/2000/svg">
<rect width="105" height="105" rx="20" fill="#FFD05B"/>
<path fill-rule="evenodd" clip-rule="evenodd" d="M56.1827 42.9547H49.2892L40.501 24.8541C42.436 24.0479 44.4517 23.4432 46.5479 23.04L52.7964 35.8999L53.1996 36.7465L53.5624 37.5527L55.4571 41.4228L55.8199 42.229L56.1827 42.9547Z" fill="#F1543F"/>
<path fill-rule="evenodd" clip-rule="evenodd" d="M56.3436 49.4851H49.2082C48.9664 49.4851 48.7648 49.3238 48.7245 49.1223L47.3135 44.6072C47.112 43.9622 47.2329 43.2769 47.636 42.7528C48.0392 42.2288 48.6035 41.9062 49.2889 41.9062H56.3033C56.9886 41.9062 57.5933 42.1884 57.9965 42.7528C58.3996 43.2769 58.5205 43.9622 58.2787 44.6072L56.908 49.1223C56.7871 49.3238 56.6258 49.4851 56.3436 49.4851ZM49.5307 48.4369H55.9808L57.2305 44.2847C57.3515 43.9622 57.3112 43.6397 57.0693 43.3978C56.8677 43.1156 56.6258 42.9947 56.2227 42.9947H49.2889C49.0067 42.9947 48.6842 43.1559 48.4423 43.3978C48.2407 43.68 48.1601 43.9622 48.281 44.2847L49.5307 48.4369Z" fill="white"/>
<path fill-rule="evenodd" clip-rule="evenodd" d="M70.5337 64.441C71.6221 63.3526 71.6221 61.6191 70.5337 60.5307C69.7274 59.7244 69.4855 58.5553 69.9693 57.4669C70.5337 56.0559 69.8483 54.4031 68.4374 53.7984C67.3892 53.3953 66.7039 52.3874 66.7039 51.2587C66.7039 49.7268 65.4139 48.4771 63.9223 48.4771C62.8339 48.4771 61.7857 47.7918 61.3423 46.7436C60.7779 45.3327 59.1654 44.6474 57.7141 45.2117C56.666 45.6149 55.4969 45.4536 54.6503 44.6474C53.5619 43.5186 51.8284 43.5186 50.6997 44.6474C49.8934 45.4536 48.7243 45.6955 47.6359 45.2117C46.2249 44.6474 44.5721 45.3327 44.0077 46.7436C43.6046 47.7918 42.5967 48.4771 41.4277 48.4771C39.9361 48.4771 38.6461 49.7268 38.6461 51.2587C38.6461 52.3471 37.9608 53.3953 36.9126 53.7984C35.5017 54.4031 34.8163 56.0156 35.421 57.4669C35.8242 58.515 35.6226 59.6438 34.8163 60.5307C33.7279 61.6191 33.7279 63.3526 34.8163 64.441C35.6226 65.2473 35.8645 66.4164 35.421 67.5048C34.8163 68.9158 35.5017 70.5686 36.9126 71.1733C37.9608 71.5764 38.6461 72.5843 38.6461 73.713C38.6461 75.2449 39.9361 76.4946 41.4277 76.4946C42.5564 76.4946 43.6046 77.2203 44.0077 78.2281C44.5721 79.639 46.1846 80.3244 47.6359 79.76C48.684 79.3569 49.8531 79.5181 50.6997 80.3244C51.8284 81.4531 53.5619 81.4531 54.6503 80.3244C55.4566 79.5181 56.6257 79.2762 57.7141 79.76C59.1251 80.3244 60.7779 79.639 61.3423 78.2281C61.7857 77.2203 62.7533 76.4946 63.9223 76.4946C65.4139 76.4946 66.7039 75.2449 66.7039 73.713C66.7039 72.6246 67.3892 71.5764 68.4374 71.1733C69.8483 70.5686 70.5337 68.9561 69.9693 67.5048C69.5258 66.4164 69.7677 65.2473 70.5337 64.441Z" fill="#F4BA29"/>
<path fill-rule="evenodd" clip-rule="evenodd" d="M65.8978 62.5071C65.8978 55.2105 59.9717 49.2441 52.6751 49.2441C45.3381 49.2441 39.4121 55.2105 39.4121 62.5071C39.4121 69.8038 45.3381 75.7701 52.6751 75.7701C60.0121 75.7701 65.8978 69.8038 65.8978 62.5071Z" fill="#E5A913"/>
<path fill-rule="evenodd" clip-rule="evenodd" d="M65.0514 24.8544L56.2632 42.9549H49.3696L49.7324 42.189L50.055 41.3827L51.99 37.5127L52.3528 36.7064L52.7559 35.8599L59.0044 23C61.1007 23.4838 63.1164 24.0885 65.0514 24.8544Z" fill="#FF7058"/>
<path d="M55.08 69.0216L52.4967 70.5005L49.2207 68.6098V67.7861L52.5154 69.6768L54.4061 68.5724L55.08 69.0216Z" fill="white"/>
<path d="M48.1554 67.9887L45.647 66.5473V58.6288C47.9308 57.2997 50.2146 55.9893 52.4984 54.6602C54.7823 55.9893 57.0661 57.2997 59.3499 58.6288V66.5473L56.1301 68.4005L55.4187 67.9513L51.7871 65.5926L51.0009 65.0871V64.2447L52.1053 64.9561L56.1488 67.5769L58.6386 66.1354V59.0406L52.4984 55.4838L46.3583 59.0406V66.1354L48.1554 67.165V67.9887Z" fill="white"/>
<path d="M55.5106 65.8786L56.8585 65.0924V60.0755L52.4967 57.5483L48.1537 60.0755V67.2826H47.4424V59.6636L52.4967 56.7246L57.5698 59.6449V65.5042L56.1846 66.3092L55.5106 65.8786ZM55.1363 66.9269L54.8555 67.0954L54.5372 66.5338L55.1363 66.9269Z" fill="white"/>
<path d="M51.019 66.4189L54.4822 68.6092L54.0891 69.2082L51.019 67.2613V66.4189Z" fill="white"/>
<path d="M53.8258 64.7863L55.0613 64.0562V61.0984L52.4967 59.6196L49.9321 61.0984V68.4366H49.2207V60.6866L52.4967 58.7959L55.7914 60.6866V64.468L54.4997 65.2168L53.8258 64.7863Z" fill="white"/>
<path d="M54.708 64.5098L56.5799 65.7078L56.1868 66.3069L53.8281 64.7906L54.708 64.5098Z" fill="white"/>
</svg>
