<svg width="105" height="105" viewBox="0 0 105 105" fill="none" xmlns="http://www.w3.org/2000/svg">
<rect width="105" height="105" rx="20" fill="#FF9867"/>
<path fill-rule="evenodd" clip-rule="evenodd" d="M65.6689 20.3758C65.1267 20.2131 64.7005 20.4112 64.4387 20.7402C52.2238 38.2871 38.7433 55.23 24.39 71.0754C23.9805 71.4212 23.9655 71.9465 24.3113 72.356C25.6627 74.3713 27.3749 76.2709 29.102 77.6451C29.5955 78.0377 30.2517 77.8882 30.5789 77.477L72.0673 25.3324C72.4599 24.8389 72.3104 24.1828 71.8992 23.8556C70.3365 22.6122 68.3794 21.1894 65.6689 20.3758Z" fill="white"/>
<path fill-rule="evenodd" clip-rule="evenodd" d="M72.5374 22.8857C72.044 22.493 71.3878 22.6425 71.0606 23.0537L53.1302 45.5894C52.7376 46.0829 52.8871 46.7391 53.3806 47.1318L47.8182 54.1227C47.2425 53.6647 46.5863 53.8141 46.2591 54.2254L28.2634 76.8433C27.8707 77.3368 28.0202 77.993 28.4314 78.3202C28.5305 78.5333 32.9569 82.5923 38.9351 83.8567C39.395 83.954 39.8212 83.7559 40.0175 83.5091C40.083 83.4269 40.083 83.4269 40.083 83.4269C44.9555 76.29 50.2224 69.3326 55.5062 62.5229L58.6305 58.4274L63.2935 52.7355C68.6763 46.139 74.3545 39.5088 80.1317 33.0917C80.5411 32.7459 80.4739 32.1552 80.2104 31.8112C77.4873 26.2867 72.7019 23.0165 72.5374 22.8857Z" fill="#E6E9EE"/>
<path fill-rule="evenodd" clip-rule="evenodd" d="M52.0365 53.1131L54.4463 51.9412L60.6328 63.5791L57.2828 63.0627L55.83 66.0704L49.6435 54.4326L52.0365 53.1131Z" fill="#F1543F"/>
<path fill-rule="evenodd" clip-rule="evenodd" d="M54.1029 52.878L53.7493 55.6858L66.6891 57.6539L65.2369 54.7524L67.5945 52.4645L54.4901 50.3655L54.1029 52.878Z" fill="#F1543F"/>
<path fill-rule="evenodd" clip-rule="evenodd" d="M55.6701 43.6488C55.5039 42.8449 54.7637 42.2559 53.9598 42.4222C53.369 42.4894 52.8269 42.3268 52.4643 41.7696C52.0849 41.0648 51.2474 40.9357 50.608 41.2329C50.0509 41.5955 49.4434 41.515 49.0321 41.1878C48.391 40.812 47.5049 40.9128 46.9813 41.5708C46.5887 42.0643 46.0802 42.197 45.5549 42.182C44.7828 41.9707 44.0126 42.4323 43.8012 43.2044C43.6385 43.7465 43.1637 44.1745 42.6552 44.3072C41.769 44.408 41.3278 45.1314 41.4941 45.9353C41.5613 46.526 41.3986 47.0681 40.7592 47.3653C40.1367 47.8102 39.9421 48.7299 40.3047 49.287C40.6674 49.8442 40.5869 50.4517 40.2597 50.863C39.8016 51.4387 39.9193 52.4725 40.5604 52.8483C41.1362 53.3064 41.2689 53.8149 41.1061 54.357C40.9771 55.1945 41.4219 55.817 42.1285 56.1106C42.8183 56.2565 43.1641 56.666 43.2313 57.2567C43.3976 58.0606 44.1378 58.6496 44.9417 58.4833C45.5324 58.416 46.0746 58.5787 46.4372 59.1359C46.8166 59.8407 47.6541 59.9698 48.3589 59.5903C48.8506 59.31 49.4581 59.3904 49.9348 59.6354C50.5105 60.0934 51.4621 59.9104 51.9201 59.3347C52.3128 58.8412 52.8213 58.7085 53.3466 58.7235C54.1187 58.9348 54.8889 58.4732 55.1002 57.7011C55.3284 57.0768 55.7378 56.731 56.2463 56.5983C57.1324 56.4974 57.5737 55.7741 57.4074 54.9702C57.3402 54.3794 57.5029 53.8373 58.1422 53.5402C58.7648 53.0953 58.9594 52.1755 58.6622 51.5362C58.2342 51.0613 58.38 50.3715 58.6418 50.0425C59.1653 49.3845 58.9822 48.433 58.4065 47.9749C57.7653 47.5991 57.6981 47.0083 57.8608 46.4662C57.9899 45.6287 57.545 45.0062 56.8384 44.7126C56.1654 44.7144 55.6551 44.1741 55.6701 43.6488Z" fill="#FF7058"/>
<path fill-rule="evenodd" clip-rule="evenodd" d="M53.3583 45.033C50.3488 42.9072 46.0827 43.5423 44.0223 46.4695C41.8964 49.4791 42.5316 53.7451 45.4588 55.8056C48.4684 57.9314 52.7344 57.2964 54.8603 54.2868C57.0684 51.3428 56.3679 47.1589 53.3583 45.033Z" fill="white"/>
<path fill-rule="evenodd" clip-rule="evenodd" d="M52.837 45.6916C50.1564 43.8275 46.5634 44.4608 44.617 47.0759C42.7529 49.7564 43.3862 53.3496 46.0012 55.2959C48.6818 57.16 52.2749 56.5267 54.2213 53.9116C56.0854 51.2311 55.5175 47.5557 52.837 45.6916Z" fill="#FF7058"/>
<path d="M53.2743 51.5692L53.0244 53.1988L51.0752 53.9667L50.7183 53.6826L52.6738 52.9067L52.8472 51.7063L53.2743 51.5692Z" fill="white"/>
<path d="M50.4386 54.2141L48.9489 54.8042L45.5169 52.0736C45.7284 50.6254 45.948 49.1837 46.1595 47.7356C47.5231 47.2041 48.8786 46.6661 50.2422 46.1346L53.6742 48.8652L53.3671 50.8998L52.927 51.0532L50.6524 51.8138L50.1622 51.9803L49.7971 51.6898L50.4863 51.4564L53.0165 50.6077L53.2504 49.0315L50.1754 46.5849L46.5165 48.0196L45.9407 51.9073L49.0157 54.3539L50.0816 53.93L50.4386 54.2141Z" fill="white"/>
<path d="M52.0607 50.2994L52.1847 49.4442L50.0104 47.7141L47.411 48.7331L47.0086 51.4868L50.1323 53.9721L49.887 54.2805L46.5848 51.6531L47.054 48.449L50.0691 47.2574L52.6085 49.2779L52.4797 50.1558L52.0607 50.2994ZM52.386 50.8232L52.3622 51.003L52.009 50.9473L52.386 50.8232Z" fill="white"/>
<path d="M50.7461 52.4316L52.8896 51.6859L53.0137 52.0629L51.1112 52.7221L50.7461 52.4316Z" fill="white"/>
<path d="M51.0061 50.6528L51.1157 49.8656L49.8338 48.8456L48.3084 49.4472L48.065 51.0687L51.2455 53.5992L51.0002 53.9075L47.6412 51.235L47.9515 49.1632L49.907 48.3872L51.5459 49.6912L51.4251 50.5092L51.0061 50.6528Z" fill="white"/>
<path d="M51.1906 50.1753L52.3554 49.7771L52.4795 50.1541L51.0089 50.6535L51.1906 50.1753Z" fill="white"/>
</svg>
