<svg width="105" height="105" viewBox="0 0 105 105" fill="none" xmlns="http://www.w3.org/2000/svg">
<rect width="105" height="105" rx="20" fill="#90DFAA"/>
<path d="M80.0446 31.9395H24.0298V73.9841H80.0446V31.9395Z" fill="#90DFAA" stroke="#7E5C62" stroke-width="0.2268" stroke-miterlimit="10"/>
<path fill-rule="evenodd" clip-rule="evenodd" d="M79.0148 31H76.1939H27.7686H24.9478H24.209H23V32.9478V34.5597V71.9701C23 72.5074 23.4701 72.9775 23.9403 72.9775C24.4776 72.9775 24.9478 72.5074 24.9478 71.9701V34.5597V32.9478H27.7686H76.1939H79.0148V34.5597V71.9701C79.0148 72.5074 79.4849 72.9775 80.0222 72.9775C80.5595 72.9775 81.0297 72.5074 81.0297 71.9701V34.5597V32.9478V31H79.8207H79.0148Z" fill="#494949"/>
<path fill-rule="evenodd" clip-rule="evenodd" d="M83.067 75.9998H21.0075C20.4701 75.9998 20 75.5297 20 74.9923V73.0446C20 72.5073 20.4701 72.0371 21.0075 72.0371H83.067C83.6043 72.0371 84.0745 72.5073 84.0745 73.0446V74.9923C84.0745 75.5297 83.6715 75.9998 83.067 75.9998Z" fill="#494949"/>
<mask id="mask0_5556_6" style="mask-type:alpha" maskUnits="userSpaceOnUse" x="35" y="35" width="35" height="32">
<rect x="35" y="35" width="35" height="32" fill="#D9D9D9"/>
</mask>
<g mask="url(#mask0_5556_6)">
<path fill-rule="evenodd" clip-rule="evenodd" d="M48.835 58.5166C40.7395 62.0492 38.2962 63.9626 37.3541 64.8163C36.8243 65.2579 36.3827 66.1705 36 67.3186C40.2391 71.4988 46.0972 74.0893 52.5147 74.0893C58.9322 74.0893 64.7609 71.4988 69 67.3186C68.6173 66.1705 68.1757 65.2579 67.6459 64.8163C66.6744 63.9626 64.3488 62.1375 56.2533 58.546L48.835 58.5166Z" fill="#FDDCCC"/>
<path fill-rule="evenodd" clip-rule="evenodd" d="M48.835 58.5166C40.7395 62.0492 38.2962 63.9626 37.3541 64.8163C36.8243 65.2579 36.3827 66.1705 36 67.3186C40.2391 71.4988 46.0972 74.0893 52.5147 74.0893C58.9322 74.0893 64.7609 71.4988 69 67.3186C68.6173 66.1705 68.1757 65.2579 67.6459 64.8163C66.6744 63.9626 64.3488 62.1375 56.2533 58.546L48.835 58.5166Z" fill="#333333"/>
<path fill-rule="evenodd" clip-rule="evenodd" d="M56.8715 53.6006H48.1284C49.4826 58.7817 48.2462 61.1073 48.2462 61.1073C48.2462 61.1073 50.1302 63.0207 52.5147 63.0207C54.8403 63.0207 56.7538 61.1073 56.7538 61.1073C56.7538 61.1073 55.4879 58.7522 56.8715 53.6006Z" fill="#F0B97D"/>
<path fill-rule="evenodd" clip-rule="evenodd" d="M44.8606 45.9162C42.9766 45.563 44.5957 51.2739 45.9792 50.4202L46.7152 52.6281C47.3923 54.6299 49.0997 56.4256 50.3949 57.8386C50.8954 58.4274 53.9864 58.3979 54.5163 57.8681C55.9587 56.3667 57.6367 54.6593 58.2843 52.6281L58.9614 50.4202C60.3744 51.2739 62.0229 45.563 60.08 45.9162C60.2272 41.4711 57.0479 37.1437 52.4556 37.1143C47.8927 37.1731 44.7134 41.4711 44.8606 45.9162Z" fill="#FED198"/>
<path fill-rule="evenodd" clip-rule="evenodd" d="M52.515 62.374C52.515 62.374 47.0396 63.6693 47.0396 64.0226C47.0396 64.2581 48.3054 70.8816 48.8647 73.796C50.0422 74.002 51.2786 74.0609 52.515 74.0609C53.9575 74.0609 55.3116 73.9432 56.6952 73.7077L57.4312 64.0226L52.515 62.374Z" fill="#E5E6E7"/>
<path fill-rule="evenodd" clip-rule="evenodd" d="M48.5407 58.6338V60.4295L50.1303 73.971C48.835 73.8238 47.5987 73.6177 46.3917 73.2939L44.0955 68.5838L47.1865 66.5232L43.4185 64.7569L46.8627 59.3697L48.5407 58.6338Z" fill="#191819"/>
<path fill-rule="evenodd" clip-rule="evenodd" d="M56.43 58.6338V60.4295L54.8403 73.971C56.1062 73.8532 57.3426 73.6177 58.5495 73.3234L60.8751 68.5838L57.7841 66.5232L61.5816 64.7569L58.4906 59.5464L56.43 58.6338Z" fill="#191819"/>
<path fill-rule="evenodd" clip-rule="evenodd" d="M50.8076 64.1689L51.7791 65.6408C52.2795 65.6408 52.78 65.6408 53.2215 65.6408L54.193 64.1689L52.515 62.3438L50.8076 64.1689Z" fill="#28A7DF"/>
<path fill-rule="evenodd" clip-rule="evenodd" d="M51.7494 65.6699L50.5425 74.0009C51.1607 74.0597 51.8378 74.0892 52.4854 74.0892C53.1036 74.0892 53.7807 74.0597 54.3989 74.0009L53.1919 65.6699H51.7494Z" fill="#28A7DF"/>
<path fill-rule="evenodd" clip-rule="evenodd" d="M48.7761 57.6924L48.2168 58.7522L49.1883 65.7584L52.5147 62.373L48.7761 57.6924Z" fill="#FEFEFE"/>
<path fill-rule="evenodd" clip-rule="evenodd" d="M56.2533 57.6924L56.6948 58.7522L55.8117 65.7878L52.5146 62.373L56.2533 57.6924Z" fill="#FEFEFE"/>
<path fill-rule="evenodd" clip-rule="evenodd" d="M53.2505 65.7288H51.7197L51.7492 65.6699H53.2211L53.2505 65.7288Z" fill="#1C96CC"/>
<path fill-rule="evenodd" clip-rule="evenodd" d="M46.0088 50.5099C45.3611 48.2138 44.0953 43.9747 44.684 42.7677C44.684 42.7677 43.3005 40.9131 45.2728 39.1763C45.2728 39.1763 45.5377 36.2914 48.5699 37.8516C48.5699 37.8516 49.7768 34.4662 56.7536 36.8507L55.6939 37.0567C61.0516 40.0005 61.2871 40.1477 60.0801 46.1531C59.8446 47.3012 59.3442 48.567 59.0498 50.245C59.0498 50.245 59.5502 46.7124 58.4022 45.4171C58.4022 45.4171 59.3442 43.0915 57.5779 42.1495C57.5779 42.1495 56.4887 41.3253 55.5172 42.0318C55.5172 42.0318 52.2496 42.856 50.3361 41.9435C50.3361 41.9435 48.5993 41.1192 47.7456 42.179C47.7456 42.179 46.5681 43.2093 47.304 45.5643C47.2746 45.5643 45.8321 45.8587 46.0088 50.5099Z" fill="#1F120E"/>
<path fill-rule="evenodd" clip-rule="evenodd" d="M52.6911 52.8359C52.5733 52.8359 52.485 53.0126 52.485 53.0126C52.485 53.0126 52.3967 52.8359 52.279 52.8359C51.808 52.8359 49.9239 53.042 49.394 53.7191C49.394 53.7191 52.0435 53.6602 52.1907 53.6308C52.3378 53.5719 52.4556 53.3069 52.4556 53.3069C52.4556 53.3069 52.5733 53.5719 52.7205 53.6308C52.8677 53.6602 55.5171 53.7191 55.5171 53.7191C55.0461 53.0126 53.1327 52.8359 52.6911 52.8359Z" fill="#221F20"/>
</g>
<path fill-rule="evenodd" clip-rule="evenodd" d="M30.2088 69.5284H76.6374C76.8352 69.5284 77 69.7426 77 69.9997C77 70.2567 76.8352 70.471 76.6374 70.471H30.2088C30.011 70.471 29.8462 70.2567 29.8462 69.9997C29.8462 69.7426 30.011 69.5284 30.2088 69.5284ZM28.1429 69.0143L29.1869 69.8997C29.2308 69.9426 29.2418 70.0139 29.2198 70.0568C29.2088 70.0711 29.1978 70.0854 29.1869 70.0997L28.1429 70.9851C28.0989 71.0137 28.044 70.9994 28.022 70.9566C28.011 70.928 28 70.9137 28 70.8851V69.1142C28 69.0429 28.044 69 28.0879 69C28.1099 69 28.1319 69 28.1429 69.0143Z" fill="white"/>
</svg>
