<svg width="29" height="33" viewBox="0 0 29 33" fill="none" xmlns="http://www.w3.org/2000/svg">
<path d="M14.645 29.7C14.8383 30.888 15.2411 31.9935 15.805 33H3.22222C1.43389 33 0 31.5315 0 29.7V3.3C0 2.42479 0.339483 1.58542 0.943767 0.966547C1.54805 0.347677 2.36764 0 3.22222 0H22.5556C23.4101 0 24.2297 0.347677 24.834 0.966547C25.4383 1.58542 25.7778 2.42479 25.7778 3.3V18.2985C25.2461 18.216 24.7144 18.15 24.1667 18.15C23.6189 18.15 23.0872 18.216 22.5556 18.2985V3.3H14.5V16.5L10.4722 12.7875L6.44444 16.5V3.3H3.22222V29.7H14.645ZM20.9444 23.1V33L29 28.05L20.9444 23.1Z" fill="#153E4F"/>
</svg>
