<svg width="25" height="31" viewBox="0 0 25 31" fill="none" xmlns="http://www.w3.org/2000/svg">
<path d="M21.0526 0C22.5066 0 23.6842 1.15217 23.6842 2.58333V6.80708C24.4684 7.254 25 8.08841 25 9.04166V28.4167C25 29.8362 23.8197 31 22.3684 31H4.61843C4.01159 31.0012 3.41048 30.8847 2.8496 30.6573C2.28872 30.4299 1.77911 30.096 1.35001 29.6747C0.920905 29.2535 0.58076 28.7532 0.349093 28.2026C0.117426 27.652 -0.00120464 27.062 9.22192e-06 26.4662V4.52858C-0.000340731 3.32876 0.484491 2.17788 1.34799 1.32875C2.2115 0.479625 3.38305 0.00171153 4.60527 0H21.0526ZM2.63159 8.60637V26.4701C2.63089 26.726 2.68175 26.9796 2.78124 27.2161C2.88072 27.4527 3.02687 27.6676 3.21128 27.8485C3.39569 28.0294 3.61471 28.1727 3.85575 28.2702C4.09679 28.3678 4.35509 28.4175 4.6158 28.4167H22.3684V9.04166H4.62106C3.93311 9.04426 3.2533 8.89552 2.63159 8.60637ZM17.1053 18.0833C17.4542 18.0833 17.7889 18.2194 18.0357 18.4616C18.2824 18.7039 18.4211 19.0324 18.4211 19.375C18.4211 19.7176 18.2824 20.0461 18.0357 20.2883C17.7889 20.5306 17.4542 20.6667 17.1053 20.6667H9.21053C8.86156 20.6667 8.52689 20.5306 8.28013 20.2883C8.03337 20.0461 7.89474 19.7176 7.89474 19.375C7.89474 19.0324 8.03337 18.7039 8.28013 18.4616C8.52689 18.2194 8.86156 18.0833 9.21053 18.0833H17.1053ZM17.1053 12.9167C17.4542 12.9167 17.7889 13.0527 18.0357 13.295C18.2824 13.5372 18.4211 13.8658 18.4211 14.2083C18.4211 14.5509 18.2824 14.8794 18.0357 15.1217C17.7889 15.3639 17.4542 15.5 17.1053 15.5H9.21053C8.86156 15.5 8.52689 15.3639 8.28013 15.1217C8.03337 14.8794 7.89474 14.5509 7.89474 14.2083C7.89474 13.8658 8.03337 13.5372 8.28013 13.295C8.52689 13.0527 8.86156 12.9167 9.21053 12.9167H17.1053ZM21.0526 2.58333H4.60527C4.34608 2.58401 4.08957 2.6348 3.85038 2.73279C3.61118 2.83079 3.39399 2.97407 3.21121 3.15447C2.84206 3.51879 2.63545 4.01214 2.63685 4.526C2.63754 4.78044 2.68928 5.03225 2.7891 5.26705C2.88893 5.50186 3.03489 5.71507 3.21865 5.8945C3.58978 6.25689 4.09234 6.4597 4.6158 6.45833H21.0526V2.58333Z" fill="#174556"/>
</svg>
