<svg width="306" height="297" viewBox="0 0 306 297" fill="none" xmlns="http://www.w3.org/2000/svg">
<path d="M66.9321 235.844C66.6673 235.844 66.4403 235.644 66.4121 235.375C66.3819 235.088 66.5906 234.83 66.8777 234.8L73.5686 234.097C73.8492 234.064 74.1135 234.275 74.1437 234.563C74.1739 234.85 73.9652 235.107 73.6781 235.138L66.9872 235.841C66.9688 235.843 66.9503 235.844 66.9321 235.844Z" fill="#3A3A3A"/>
<path d="M305.4 19.2769L297.25 94.3298C296.501 101.219 290.361 106.224 283.461 105.569L206.019 98.2155C204.076 98.0309 202.142 98.656 200.675 99.9432L183.056 115.396C183.056 115.396 183.832 109.345 184.583 103.544C185.098 99.5674 182.215 95.9565 178.224 95.5769L177.276 95.4868C170.261 94.8219 165.142 88.561 165.875 81.5514L173.203 11.8645C173.905 5.2056 179.668 0.242952 186.359 0.536149L293.365 5.25798C300.673 5.5825 306.186 12.011 305.4 19.2769Z" fill="#FDFDFD"/>
<path d="M183.057 115.919C182.973 115.919 182.888 115.899 182.811 115.858C182.618 115.755 182.51 115.545 182.537 115.329C182.537 115.329 183.312 109.278 184.063 103.476C184.294 101.695 183.805 99.9417 182.685 98.5384C181.564 97.1346 179.963 96.268 178.175 96.0979L177.227 96.0078C173.696 95.6735 170.514 93.9778 168.268 91.2334C166.019 88.4871 164.985 85.0288 165.354 81.4963L172.683 11.8097C173.412 4.89026 179.433 -0.288904 186.382 0.0127773L293.389 4.73493C297.068 4.89858 300.415 6.52724 302.814 9.32215C305.213 12.1169 306.317 15.6725 305.921 19.3334C305.921 19.3334 305.921 19.3334 305.921 19.3339L297.77 94.3863C296.996 101.517 290.556 106.771 283.412 106.09L205.97 98.7363C204.175 98.5661 202.374 99.1499 201.02 100.337L183.402 115.789C183.304 115.874 183.181 115.919 183.057 115.919ZM185.8 1.04688C179.628 1.04688 174.376 5.7271 173.724 11.919L166.395 81.6056C166.055 84.858 167.008 88.0419 169.078 90.5704C171.146 93.0964 174.075 94.6577 177.326 94.9659L178.274 95.0559C180.347 95.2527 182.204 96.2578 183.503 97.885C184.801 99.5126 185.37 101.546 185.102 103.611C184.569 107.73 184.023 111.974 183.752 114.089L200.33 99.5497C201.899 98.1734 203.987 97.494 206.069 97.6944L283.511 105.048C290.078 105.666 296.016 100.838 296.729 94.2728L304.88 19.2209C305.244 15.8503 304.229 12.577 302.02 10.004C299.811 7.43097 296.729 5.93105 293.343 5.78078L186.336 1.05863C186.157 1.05096 185.977 1.04688 185.8 1.04688Z" fill="#3A3A3A"/>
<path d="M249.073 156.862C249.073 156.862 244.444 223.989 228.106 227.617C208.748 231.918 180.083 191.262 180.083 191.262L204.138 161.985L218.072 176.798L223.636 148.521C223.636 148.521 216.833 141.406 216.814 136.497C216.796 130.64 216.732 117.596 217.326 110.114C217.483 108.092 219.301 106.614 221.314 106.872C222.156 106.978 222.907 107.383 223.455 107.968C224.007 108.553 224.357 109.326 224.408 110.178L224.921 121.706C224.921 121.706 246.595 125.634 249.192 129.464C252.752 134.714 249.073 156.862 249.073 156.862Z" fill="#FDFDFD"/>
<path d="M225.105 228.462C205.903 228.462 180.773 193.147 179.656 191.563C179.52 191.37 179.529 191.111 179.679 190.929L203.734 161.653C203.829 161.537 203.97 161.467 204.121 161.462C204.265 161.446 204.416 161.517 204.519 161.627L217.755 175.697L223.071 148.683C221.94 147.462 216.309 141.149 216.291 136.499L216.289 135.92C216.27 129.888 216.228 117.338 216.804 110.072C216.891 108.952 217.42 107.943 218.293 107.233C219.166 106.523 220.264 106.21 221.381 106.353C222.314 106.471 223.187 106.917 223.837 107.61C224.485 108.296 224.874 109.197 224.931 110.147L225.426 121.266C229.014 121.931 247.102 125.448 249.626 129.171C253.233 134.491 249.795 155.706 249.593 156.924C249.378 160.027 244.702 224.468 228.22 228.129C227.204 228.354 226.162 228.462 225.105 228.462ZM180.743 191.283C183.361 194.902 207.388 227.41 225.124 227.412C226.102 227.413 227.058 227.314 227.993 227.106C243.765 223.603 248.504 157.494 248.55 156.827C248.552 156.81 248.553 156.793 248.556 156.776C248.593 156.557 252.161 134.775 248.759 129.758C246.73 126.765 230.796 123.302 224.828 122.221C224.587 122.177 224.409 121.973 224.398 121.729L223.885 110.202C223.843 109.504 223.555 108.836 223.075 108.327C222.59 107.81 221.942 107.478 221.248 107.391C220.419 107.283 219.602 107.517 218.954 108.045C218.305 108.572 217.912 109.321 217.848 110.154C217.274 117.378 217.316 129.899 217.336 135.916L217.338 136.495C217.356 141.137 223.948 148.089 224.015 148.159C224.132 148.282 224.183 148.455 224.15 148.622L218.586 176.899C218.548 177.092 218.405 177.247 218.217 177.301C218.029 177.355 217.824 177.3 217.69 177.157L204.165 162.777L180.743 191.283Z" fill="#3A3A3A"/>
<path d="M164.535 136.086C164.535 136.086 177.542 140.319 185.223 145.179C192.904 150.038 212.431 167.262 212.431 167.262C211.632 177.509 195.361 191.923 182.35 199.97L154.879 169.041L164.535 136.086Z" fill="#17485A"/>
<path d="M132.838 131.548C113.726 132.079 90.0671 136.231 82.2486 147.08C71.7691 161.622 64.8945 252.319 64.8945 252.319H165.184C165.184 252.319 185.72 165.195 179.748 147.062C175.723 134.839 144.841 131.215 132.838 131.548Z" fill="#17485A"/>
<path d="M149.876 152.993C146.046 154.273 141.459 148.899 138.696 144.948C138.296 150.557 136.019 156.385 130.832 156.388C118.712 156.395 109.706 134.685 109.706 134.685L118.832 132.263C118.832 132.263 133.092 138.055 138.056 138.377L144.222 129.325L153.804 133.423C153.804 133.423 155.798 151.022 149.876 152.993Z" fill="#FDFDFD"/>
<path d="M130.825 156.911C118.5 156.913 109.595 135.785 109.222 134.885C109.164 134.746 109.169 134.588 109.236 134.452C109.303 134.317 109.426 134.217 109.571 134.178L118.698 131.756C118.808 131.726 118.924 131.735 119.029 131.777C119.168 131.834 132.719 137.32 137.796 137.831L143.79 129.03C143.93 128.823 144.198 128.746 144.428 128.843L154.01 132.941C154.183 133.015 154.303 133.177 154.324 133.364C154.408 134.1 156.294 151.406 150.043 153.489C146.349 154.724 142.175 150.551 139.08 146.377C138.398 151.697 135.941 156.908 130.832 156.911C130.83 156.911 130.827 156.911 130.825 156.911ZM110.43 135.034C111.929 138.385 120.26 155.864 130.825 155.864C130.827 155.864 130.829 155.864 130.831 155.864C135.669 155.861 137.796 150.204 138.174 144.911C138.19 144.69 138.343 144.502 138.557 144.444C138.772 144.383 138.998 144.467 139.125 144.648C141.536 148.095 146.12 153.696 149.71 152.496C149.711 152.496 149.711 152.496 149.711 152.496C154.144 151.02 153.839 138.774 153.317 133.784L144.412 129.975L138.489 138.672C138.385 138.825 138.204 138.907 138.023 138.9C133.261 138.59 120.473 133.488 118.798 132.813L110.43 135.034Z" fill="#3A3A3A"/>
<path d="M165.184 252.843C165.145 252.843 165.104 252.838 165.064 252.829C164.783 252.762 164.608 252.481 164.674 252.199C164.813 251.609 178.601 192.836 180.167 162.25C180.182 161.96 180.447 161.729 180.717 161.753C181.005 161.768 181.228 162.015 181.213 162.303C179.641 192.985 165.833 251.848 165.693 252.439C165.637 252.68 165.422 252.843 165.184 252.843Z" fill="#3A3A3A"/>
<path d="M186.459 207.298H149.868C148.469 207.298 147.409 206.037 147.649 204.659L149.48 194.508C149.668 193.429 150.605 192.642 151.7 192.642H188.29C189.689 192.642 190.75 193.904 190.51 195.281L188.678 205.432C188.49 206.511 187.554 207.298 186.459 207.298Z" fill="#E7E725"/>
<path d="M112.489 233.62C112.489 233.62 124.504 212.862 130.943 214.369C137.383 215.876 127.518 226.359 127.518 226.359" fill="#FDFDFD"/>
<path d="M112.488 234.143C112.399 234.143 112.309 234.121 112.227 234.073C111.977 233.928 111.891 233.608 112.036 233.358C112.534 232.497 124.316 212.281 131.063 213.86C132.381 214.168 133.207 214.846 133.518 215.876C134.599 219.462 128.588 225.986 127.9 226.718C127.701 226.928 127.37 226.938 127.159 226.74C126.949 226.542 126.939 226.211 127.137 226C128.893 224.133 133.284 218.727 132.515 216.178C132.318 215.524 131.764 215.099 130.824 214.879C125.839 213.716 116.229 228.201 112.942 233.882C112.845 234.05 112.669 234.143 112.488 234.143Z" fill="#3A3A3A"/>
<path d="M208.892 203.5C206.069 202.973 131.551 203.5 131.551 203.5C131.551 203.5 116.11 278.163 117.112 277.719C118.113 277.275 190.576 278.345 190.576 278.345L208.892 203.5Z" fill="#E7E725"/>
<g filter="url(#filter0_d_1725_2496)">
<rect x="168.454" y="255" width="20.054" height="20.0541" rx="10.027" transform="rotate(1.29567 168.454 255)" fill="url(#paint0_linear_1725_2496)"/>
<path d="M182.767 260.044L178.361 259.944L182.653 265.089L182.767 260.044Z" fill="#E7E725"/>
<path d="M173.63 262.799L173.587 262.798C173.61 261.787 173.893 261.046 174.437 260.577C174.982 260.108 175.808 259.886 176.918 259.911L182.601 267.365C182.579 268.337 182.309 269.026 181.79 269.432C181.286 269.828 180.472 270.014 179.348 269.988L173.63 262.799ZM173.563 264.787L177.691 269.958L173.449 269.862L173.563 264.787Z" fill="white"/>
<path d="M174.98 268.377L179.537 268.48L179.503 269.999L174.946 269.896L174.98 268.377Z" fill="white"/>
</g>
<path d="M190.576 278.868C190.573 278.868 190.571 278.868 190.568 278.868C170.822 278.576 119.277 277.892 117.265 278.219C117.093 278.273 116.906 278.239 116.764 278.124C116.416 277.844 116.258 277.716 118.515 265.764C119.683 259.58 121.368 251.004 123.522 240.275C127.189 222.007 131 203.578 131.037 203.394C131.087 203.152 131.3 202.978 131.547 202.976C134.591 202.954 206.148 202.455 208.988 202.985C209.13 203.012 209.254 203.095 209.332 203.216C209.41 203.337 209.435 203.484 209.401 203.624L191.085 278.468C191.027 278.703 190.817 278.868 190.576 278.868ZM124.345 277.101C140.113 277.101 176.501 277.614 190.166 277.815L208.24 203.964C202.347 203.627 156.703 203.847 131.977 204.02C126.283 231.567 118.062 272.305 117.606 277.173C118.726 277.122 121.099 277.101 124.345 277.101Z" fill="#E7E725"/>
<path d="M141.959 236.379C141.959 236.379 146.407 236.858 145.919 239.929C145.431 242.996 139.178 244.662 139.178 244.662C139.178 244.662 144.311 244.777 142.479 248.917C141.258 251.675 130.629 254.858 130.629 254.858C130.629 254.858 121.825 264.363 114.419 265.736C108.541 266.825 44.7265 278.145 36.0099 262.305C27.2885 246.46 51.9399 187.749 51.9399 187.749L91.4065 195.296L76.574 236.377C76.574 236.377 109.076 235.054 110.254 234.783C115.591 232.568 122.677 224.872 127.369 222.96C132.066 221.054 138.962 221.469 141.522 222.403C145.625 223.895 143.147 227.713 143.147 227.713C143.147 227.713 146.748 228.983 146.394 231.94C145.993 235.278 141.959 236.379 141.959 236.379Z" fill="#FDFDFD"/>
<path d="M66.2171 271.229C51.9546 271.229 39.2032 269.195 35.551 262.558C26.8086 246.674 50.4465 189.953 51.4572 187.546C51.5529 187.319 51.7956 187.187 52.0379 187.235L91.5047 194.782C91.6554 194.811 91.7858 194.904 91.8615 195.037C91.9372 195.17 91.9509 195.33 91.8989 195.474L77.3305 235.822C90.1689 235.297 108.813 234.482 110.103 234.279C112.765 233.159 115.92 230.613 118.972 228.15C121.979 225.725 124.818 223.434 127.171 222.476C131.817 220.589 138.88 220.881 141.701 221.912C143.039 222.398 143.894 223.172 144.242 224.212C144.661 225.462 144.213 226.752 143.879 227.458C144.967 227.984 147.225 229.403 146.913 232.002C146.644 234.243 144.954 235.555 143.65 236.244C144.433 236.518 145.32 236.972 145.888 237.715C146.39 238.371 146.574 239.143 146.436 240.011C146.082 242.239 143.191 243.746 141.2 244.531C141.878 244.78 142.569 245.188 142.993 245.855C143.545 246.725 143.534 247.827 142.957 249.129C141.719 251.93 132.519 254.831 130.915 255.319C129.876 256.42 121.67 264.924 114.514 266.25C110.302 267.031 86.7018 271.228 66.2171 271.229ZM52.2603 188.343C50.1402 193.489 28.3366 247.279 36.4681 262.053C45.1583 277.846 111.504 265.745 114.323 265.221C121.472 263.896 130.158 254.596 130.245 254.502C130.308 254.434 130.389 254.384 130.478 254.357C133.371 253.49 141.079 250.786 142 248.705C142.425 247.744 142.463 246.975 142.11 246.418C141.5 245.453 139.778 245.201 139.166 245.186C138.906 245.179 138.689 244.983 138.659 244.724C138.628 244.466 138.792 244.224 139.043 244.157C140.691 243.716 145.046 242.083 145.402 239.846C145.494 239.266 145.382 238.778 145.059 238.353C144.147 237.159 141.925 236.902 141.902 236.899C141.653 236.871 141.458 236.67 141.438 236.421C141.418 236.17 141.579 235.94 141.821 235.874C141.858 235.864 145.52 234.819 145.874 231.877C146.174 229.378 143.103 228.252 142.972 228.206C142.822 228.152 142.703 228.032 142.652 227.88C142.6 227.729 142.621 227.562 142.708 227.428C142.717 227.413 143.696 225.867 143.248 224.54C143.005 223.82 142.364 223.267 141.343 222.895C139.061 222.062 132.317 221.517 127.566 223.446C125.356 224.346 122.574 226.59 119.63 228.965C116.501 231.49 113.266 234.1 110.455 235.267C110.428 235.278 110.4 235.287 110.372 235.293C109.18 235.568 79.9272 236.764 76.5955 236.9C76.4165 236.903 76.2545 236.827 76.1517 236.686C76.0489 236.545 76.0223 236.363 76.0817 236.199L90.7062 195.695L52.2603 188.343Z" fill="#3A3A3A"/>
<path d="M143.146 227.714C143.146 227.714 136.075 228.159 133.299 228.848C128.944 229.929 124.013 234.783 124.013 234.783" fill="#FDFDFD"/>
<path d="M124.013 235.307C123.878 235.307 123.743 235.255 123.64 235.15C123.437 234.944 123.44 234.613 123.646 234.41C123.852 234.208 128.73 229.444 133.173 228.341C135.963 227.648 142.822 227.211 143.113 227.192C143.397 227.175 143.65 227.393 143.668 227.682C143.686 227.97 143.467 228.219 143.178 228.237C143.108 228.242 136.124 228.687 133.426 229.357C129.262 230.391 124.429 235.109 124.38 235.157C124.278 235.257 124.145 235.307 124.013 235.307Z" fill="#3A3A3A"/>
<path d="M141.958 236.379C141.958 236.379 137.42 236.281 134.026 237.529C130.632 238.777 126.73 241.77 126.73 241.77" fill="#FDFDFD"/>
<path d="M126.731 242.293C126.574 242.293 126.418 242.222 126.315 242.088C126.139 241.858 126.183 241.53 126.412 241.354C126.574 241.23 130.417 238.298 133.846 237.038C137.294 235.77 141.783 235.852 141.969 235.855C142.258 235.862 142.488 236.101 142.482 236.39C142.475 236.675 142.242 236.902 141.958 236.902C141.949 236.902 141.971 236.9 141.748 236.901C140.847 236.901 137.072 236.967 134.207 238.02C130.926 239.227 127.088 242.156 127.049 242.185C126.954 242.258 126.842 242.293 126.731 242.293Z" fill="#3A3A3A"/>
<path d="M139.177 244.66C139.177 244.66 137.089 244.655 134.344 245.604C131.599 246.552 128.064 249.939 128.064 249.939" fill="#FDFDFD"/>
<path d="M128.064 250.462C127.927 250.462 127.789 250.408 127.686 250.301C127.486 250.092 127.493 249.761 127.702 249.561C127.85 249.419 131.352 246.084 134.173 245.109C136.947 244.151 139.055 244.136 139.176 244.136C139.177 244.136 139.178 244.136 139.179 244.136C139.467 244.137 139.701 244.371 139.7 244.66C139.7 244.949 139.466 245.183 139.177 245.183C139.157 245.183 137.133 245.194 134.515 246.099C131.908 246.999 128.461 250.284 128.426 250.317C128.325 250.414 128.194 250.462 128.064 250.462Z" fill="#3A3A3A"/>
<path d="M243.173 140.925C241.97 140.823 238.809 142.913 237.946 144.076C237.082 145.239 231.573 149.073 229.116 147.291C226.659 145.509 229.459 141.693 229.459 141.693L234.381 130.617" fill="#FDFDFD"/>
<path d="M230.745 148.283C230.026 148.283 229.361 148.115 228.809 147.715C228.146 147.234 227.747 146.589 227.624 145.798C227.328 143.906 228.752 141.786 229.002 141.431L233.903 130.404C234.021 130.141 234.33 130.022 234.594 130.138C234.858 130.256 234.977 130.565 234.86 130.83L229.937 141.905C229.922 141.939 229.903 141.972 229.881 142.002C229.866 142.022 228.407 144.042 228.658 145.638C228.739 146.15 228.989 146.552 229.423 146.867C231.5 148.372 236.675 144.908 237.525 143.764C238.465 142.499 241.774 140.272 243.217 140.404C243.506 140.428 243.719 140.682 243.694 140.97C243.67 141.258 243.418 141.474 243.128 141.446C242.254 141.362 239.218 143.241 238.365 144.389C237.569 145.461 233.698 148.283 230.745 148.283Z" fill="#3A3A3A"/>
<path d="M246.049 121.784C249.577 122.552 249.212 129.587 249.193 129.465C249.193 129.465 240.836 130.447 237.033 132.992C233.231 135.537 229.459 141.693 229.459 141.693C229.459 141.693 227.625 141.104 226.797 139.1C225.969 137.095 227.219 133.463 227.219 133.463L227.446 127.014L232.479 123.66L239.261 120.839L244.365 120.572L246.049 121.784Z" fill="#FDFDFD"/>
<path d="M229.459 142.216C229.405 142.216 229.352 142.208 229.299 142.191C229.214 142.164 227.222 141.503 226.313 139.299C225.479 137.28 226.513 133.931 226.698 133.369L226.922 126.995C226.928 126.827 227.014 126.672 227.155 126.578L232.188 123.224C232.216 123.206 232.246 123.19 232.277 123.177L239.06 120.356C239.115 120.333 239.174 120.32 239.234 120.316L244.338 120.049C244.454 120.043 244.573 120.078 244.67 120.148L246.27 121.298C250.121 122.272 249.724 129.419 249.718 129.491C249.694 129.752 249.477 129.978 249.215 129.99C248.602 130.066 240.849 131.068 237.324 133.427C233.663 135.878 229.942 141.906 229.905 141.966C229.808 142.125 229.637 142.216 229.459 142.216ZM227.959 127.301L227.741 133.481C227.74 133.533 227.73 133.584 227.713 133.633C227.702 133.667 226.539 137.103 227.281 138.9C227.792 140.14 228.736 140.769 229.254 141.035C230.158 139.626 233.4 134.794 236.741 132.557C240.137 130.285 246.869 129.248 248.683 129.002C248.688 127.591 248.505 122.854 245.937 122.296C245.867 122.28 245.801 122.251 245.743 122.209L244.208 121.105L239.378 121.357L232.726 124.124L227.959 127.301Z" fill="#3A3A3A"/>
<path d="M252.097 92.9587L259.851 109.274L253.354 112.159L205.857 133.26L200.457 120.561L244.525 97.0038L252.097 92.9587Z" fill="#17485A"/>
<path d="M205.857 133.784C205.792 133.784 205.727 133.771 205.666 133.747C205.535 133.696 205.43 133.594 205.376 133.465L199.976 120.765C199.869 120.516 199.971 120.227 200.21 120.099L251.85 92.4969C251.976 92.4289 252.124 92.4167 252.26 92.4612C252.396 92.5062 252.508 92.6048 252.57 92.7337L260.323 109.048C260.384 109.176 260.39 109.323 260.341 109.455C260.292 109.588 260.192 109.694 260.063 109.752L206.07 133.739C206.002 133.769 205.93 133.784 205.857 133.784ZM201.126 120.796L206.131 132.566L259.147 109.013L251.86 93.679L201.126 120.796Z" fill="#3A3A3A"/>
<path d="M200.457 120.561L205.857 133.26L197.888 131.407L191.906 130.012L196 125.488L200.457 120.561Z" fill="#FDFDFD"/>
<path d="M205.857 133.784C205.818 133.784 205.778 133.779 205.739 133.77L191.787 130.521C191.606 130.479 191.462 130.345 191.406 130.168C191.351 129.99 191.393 129.798 191.518 129.66L200.069 120.209C200.188 120.077 200.368 120.016 200.544 120.044C200.72 120.074 200.869 120.191 200.939 120.355L206.339 133.055C206.416 133.237 206.385 133.446 206.258 133.597C206.157 133.717 206.01 133.784 205.857 133.784ZM192.891 129.704L204.972 132.517L200.296 121.519L192.891 129.704Z" fill="#3A3A3A"/>
<path d="M196 125.488L197.888 131.406L191.906 130.012L196 125.488Z" fill="#3A3A3A"/>
<path d="M252.096 92.9585L259.85 109.273L253.353 112.159L244.524 97.0035L252.096 92.9585Z" fill="#FDFDFD"/>
<path d="M253.354 112.682C253.172 112.682 252.997 112.588 252.901 112.422L244.072 97.2668C244 97.1441 243.982 96.9974 244.021 96.8609C244.06 96.7238 244.152 96.6088 244.278 96.5419L251.85 92.4972C251.976 92.4291 252.124 92.4169 252.26 92.4614C252.396 92.5065 252.508 92.605 252.57 92.7339L260.323 109.049C260.384 109.176 260.39 109.323 260.341 109.455C260.292 109.588 260.192 109.695 260.063 109.752L253.566 112.637C253.497 112.668 253.425 112.682 253.354 112.682ZM245.25 97.2095L253.57 111.49L259.147 109.013L251.859 93.6791L245.25 97.2095Z" fill="#3A3A3A"/>
<path d="M241.33 114.966C241.33 114.966 245.027 105.473 239.42 104.263C233.813 103.054 220.262 106.2 220.888 109.758C221.866 115.315 231.073 111.106 233.68 112.485C234.731 113.041 233.994 117.509 233.994 117.509L241.33 114.966Z" fill="#FDFDFD"/>
<path d="M233.994 118.033C233.873 118.033 233.753 117.99 233.657 117.909C233.516 117.791 233.448 117.606 233.478 117.424C233.823 115.325 233.802 113.191 233.433 112.947C232.659 112.536 230.96 112.741 229.163 112.958C225.566 113.39 221.091 113.93 220.372 109.848C220.242 109.105 220.544 108.374 221.27 107.674C224.428 104.635 234.849 102.742 239.531 103.752C240.824 104.03 241.778 104.727 242.367 105.823C244.136 109.112 241.913 114.911 241.817 115.156C241.762 115.299 241.646 115.41 241.501 115.461L234.166 118.004C234.11 118.023 234.052 118.033 233.994 118.033ZM232.013 111.665C232.776 111.665 233.427 111.759 233.925 112.022C234.968 112.574 234.844 115.075 234.636 116.732L240.924 114.553C241.302 113.485 242.809 108.853 241.445 106.318C241.001 105.494 240.303 104.989 239.31 104.775C234.668 103.776 224.633 105.89 221.996 108.428C221.536 108.871 221.337 109.288 221.403 109.666C221.91 112.55 224.887 112.418 229.037 111.919C230.13 111.787 231.144 111.665 232.013 111.665Z" fill="#3A3A3A"/>
<path d="M227.218 133.463C227.218 133.463 224.876 134.164 224.419 130.881C223.962 127.597 224.287 122.525 225.254 120.989C226.609 118.84 239.792 112.51 243.948 113.606C248.104 114.703 246.049 121.784 246.049 121.784C246.049 121.784 233.113 125.405 230.593 127.644C228.072 129.883 227.218 133.463 227.218 133.463Z" fill="#FDFDFD"/>
<path d="M226.703 134.048C226.319 134.048 225.818 133.969 225.335 133.659C224.564 133.164 224.081 132.254 223.901 130.953C223.437 127.622 223.733 122.422 224.811 120.71C226.237 118.449 239.596 111.915 244.081 113.1C245.086 113.365 245.854 113.956 246.363 114.855C247.828 117.442 246.605 121.748 246.552 121.93C246.501 122.104 246.364 122.239 246.19 122.288C246.062 122.324 233.342 125.901 230.941 128.036C228.578 130.134 227.736 133.55 227.727 133.584C227.684 133.766 227.547 133.911 227.368 133.964C227.347 133.971 227.082 134.048 226.703 134.048ZM242.746 113.994C237.897 113.994 226.812 119.499 225.697 121.269C224.85 122.613 224.467 127.428 224.937 130.809C225.074 131.786 225.394 132.447 225.89 132.771C226.216 132.984 226.57 133.01 226.802 132.999C227.089 132.02 228.067 129.187 230.245 127.253C232.642 125.123 243.634 121.927 245.618 121.362C245.851 120.411 246.509 117.236 245.452 115.369C245.082 114.717 244.546 114.305 243.815 114.112C243.508 114.032 243.148 113.994 242.746 113.994Z" fill="#3A3A3A"/>
<path d="M94.5131 138.383C94.5131 138.383 79.1487 141.926 66.2735 155.994C55.8568 167.376 42.665 193.555 42.665 193.555C52.5195 203.692 81.3618 214.373 90.9349 212.402C90.9349 212.402 102.281 177.575 103.236 167.262C104.191 156.949 94.5131 138.383 94.5131 138.383Z" fill="#17485A"/>
<path d="M88.2648 213.157C83.192 213.157 75.3212 211.302 66.7183 208.008C56.0123 203.908 46.88 198.641 42.2897 193.92C42.0883 193.713 42.0929 193.382 42.2999 193.18C42.507 192.978 42.8382 192.983 43.0402 193.19C52.9139 203.346 81.075 213.559 90.5326 211.945C91.6354 208.536 101.822 176.849 102.715 167.214C102.742 166.926 102.993 166.718 103.284 166.74C103.572 166.767 103.784 167.022 103.757 167.31C102.807 177.563 91.8964 211.139 91.4327 212.564C91.3745 212.743 91.2247 212.876 91.0406 212.914C90.2479 213.077 89.3164 213.157 88.2648 213.157Z" fill="#3A3A3A"/>
<path d="M217.196 183.084C217.17 183.084 217.144 183.082 217.117 183.077C216.831 183.034 216.635 182.767 216.678 182.481L217.556 176.719C217.6 176.433 217.865 176.234 218.152 176.28C218.438 176.323 218.634 176.59 218.591 176.876L217.713 182.639C217.674 182.898 217.451 183.084 217.196 183.084Z" fill="#3A3A3A"/>
<path d="M140.906 100.989L140.98 101.584L144.598 132.562C144.598 132.562 143.492 139.475 137.494 140.921C131.497 142.366 118.806 132.268 118.834 132.264C118.862 132.259 117.064 100.988 117.064 100.988" fill="#FDFDFD"/>
<path d="M136.212 141.585C129.576 141.586 118.539 132.718 118.446 132.615C118.356 132.516 118.309 132.387 118.311 132.257C118.297 131.653 117.149 111.575 116.542 101.019C116.525 100.73 116.746 100.482 117.034 100.466C117.317 100.448 117.57 100.67 117.587 100.958C117.587 100.958 118.036 108.777 118.482 116.595C118.705 120.504 118.927 124.413 119.092 127.346C119.174 128.812 119.242 130.035 119.289 130.89C119.315 131.383 119.335 131.742 119.339 132.005C121.368 133.676 132.266 141.644 137.371 140.413C142.647 139.141 143.935 133.241 144.068 132.546L140.387 101.054C140.351 100.766 140.554 100.505 140.841 100.469C141.133 100.436 141.39 100.637 141.425 100.924L141.5 101.519L145.117 132.502C145.123 132.55 145.122 132.598 145.114 132.646C145.067 132.942 143.881 139.92 137.617 141.43C137.178 141.535 136.706 141.585 136.212 141.585Z" fill="#3A3A3A"/>
<path d="M122.403 118.939C130.19 124.003 139.619 126.066 148.985 120.813C165.458 111.574 153.356 68.504 130.201 67.9517C101.344 67.2634 100.815 92.1632 106.618 103.551C108.017 106.296 112.213 107.905 114.474 110.637" fill="#FDFDFD"/>
<path d="M137.595 124.424C131.511 124.424 126.135 121.99 122.117 119.377C121.875 119.22 121.806 118.895 121.964 118.653C122.121 118.411 122.445 118.341 122.688 118.5C128.888 122.532 138.438 126.127 148.729 120.356C155.427 116.6 157.816 106.373 154.816 94.3033C151.776 82.0738 142.773 68.7754 130.189 68.4753C119.53 68.2125 111.694 71.5723 107.544 78.167C102.729 85.819 103.668 96.6087 107.084 103.313C107.804 104.725 109.374 105.849 111.036 107.038C112.41 108.021 113.83 109.038 114.878 110.302C115.062 110.525 115.031 110.855 114.808 111.04C114.585 111.224 114.255 111.192 114.071 110.97C113.11 109.81 111.746 108.834 110.427 107.89C108.658 106.624 106.987 105.428 106.152 103.788C102.601 96.821 101.635 85.5914 106.658 77.6093C109.696 72.7808 116.256 67.0991 130.213 67.4283C143.346 67.7418 152.699 81.4481 155.831 94.0507C158.949 106.591 156.362 117.275 149.241 121.269C145.197 123.537 141.266 124.424 137.595 124.424Z" fill="#3A3A3A"/>
<path d="M112.724 98.3219C112.915 99.3107 114.229 99.8793 115.08 99.3415C115.662 98.9741 115.933 98.2723 116.09 97.6024C116.808 94.5487 115.823 91.1514 113.583 88.9551C117.653 88.7531 121.664 87.6195 125.032 85.3266C126.338 84.4372 127.588 83.3581 128.237 81.9174C128.777 80.7185 128.845 79.3837 128.756 78.0898C128.729 77.6957 128.488 76.9415 128.684 76.5687C128.91 76.1375 129.634 76.0562 130.051 75.8742C132.259 74.9089 134.115 73.1308 135.126 70.9383C139.408 72.6898 143.784 74.4995 147.217 77.6012C147.931 78.2458 148.636 78.965 149.556 79.246C150.901 79.6572 152.426 78.9631 153.234 77.8117C154.043 76.6603 154.215 75.1528 153.98 73.7656C153.745 72.3785 153.14 71.0838 152.5 69.8307C153.526 68.7811 154.89 67.913 155.685 66.679C156.48 65.4452 157.029 64.0082 156.981 62.5413C156.92 60.6728 155.823 58.8713 154.192 57.9585C152.56 57.0456 150.451 57.0536 148.827 57.9787C149.9 55.9743 148.984 53.3118 147.333 51.7481C145.682 50.1844 143.207 49.6691 140.976 50.1046C138.744 50.5401 136.748 51.8348 135.149 53.451C134.356 51.0477 131.186 50.1658 128.79 50.9805C126.394 51.795 124.617 53.7826 122.955 55.691C122.819 53.9731 120.963 52.7904 119.24 52.8375C117.518 52.8847 115.958 53.842 114.593 54.8937C112.603 56.4266 110.82 58.2283 109.307 60.2335C109.017 60.6178 108.597 61.0431 108.381 61.4718C108.164 61.9053 108.187 62.3995 108.048 62.8653C107.732 63.9281 107.012 64.859 106.152 65.5432C104.903 66.5379 103.368 67.0924 101.861 67.6217C100.354 68.1508 98.8157 68.6858 97.5425 69.6504C95.6992 71.0472 94.5582 73.3277 94.5459 75.6405C94.5389 76.9585 94.8989 78.2708 95.5474 79.416C95.8821 80.007 96.2937 80.5558 96.7729 81.0375C97.2373 81.5043 97.6967 81.5764 97.3321 82.1311C97.0389 82.5771 96.2549 83.0075 95.8591 83.4075C95.3598 83.9122 94.8868 84.4434 94.4497 85.0029C93.5799 86.1163 92.8488 87.3426 92.3415 88.6634C91.3554 91.2305 91.2617 94.2051 92.444 96.688C93.6262 99.171 96.1849 101.041 98.9349 101.058C96.7731 103.22 96.5975 106.876 98.0382 109.573C99.4789 112.269 102.244 114.067 105.166 114.968C106.832 115.482 108.788 115.694 110.198 114.667C111.427 113.771 111.902 112.18 112.208 110.69C113.058 106.547 113.196 102.259 112.615 98.0695" fill="#3A3A3A"/>
<path d="M114.192 101.341C113.802 101.012 113.394 100.703 112.962 100.421C111.347 99.3683 109.328 98.7308 107.399 99.1033C105.592 99.4523 104.033 100.685 103.204 102.241C102.376 103.797 102.248 105.641 102.692 107.325C103.476 110.294 105.995 112.709 109.004 113.848C112.013 114.986 115.443 114.93 118.562 114.062" fill="#FDFDFD"/>
<path d="M113.945 115.231C112.134 115.231 110.392 114.932 108.819 114.337C105.518 113.088 102.977 110.453 102.186 107.459C101.683 105.553 101.88 103.613 102.742 101.995C103.681 100.232 105.385 98.9589 107.3 98.5897C109.194 98.2216 111.308 98.7179 113.247 99.9823C113.676 100.261 114.096 100.575 114.53 100.941C114.751 101.128 114.779 101.458 114.593 101.679C114.406 101.899 114.075 101.928 113.855 101.742C113.454 101.404 113.068 101.115 112.676 100.859C110.99 99.7609 109.104 99.3089 107.498 99.6171C105.914 99.9229 104.446 101.022 103.667 102.487C102.94 103.852 102.769 105.566 103.198 107.192C103.904 109.863 106.199 112.226 109.189 113.358C111.909 114.387 115.187 114.458 118.422 113.558C118.697 113.482 118.99 113.643 119.067 113.923C119.144 114.201 118.981 114.49 118.702 114.567C117.109 115.011 115.501 115.231 113.945 115.231Z" fill="#3A3A3A"/>
<path d="M114.323 109.234C114.315 109.234 114.306 109.234 114.297 109.234C112.047 109.123 109.903 108.089 108.416 106.398C108.127 106.07 107.783 105.621 107.696 105.06C107.587 104.362 107.955 103.675 108.552 103.462C108.825 103.364 109.124 103.507 109.221 103.779C109.319 104.051 109.177 104.351 108.905 104.448C108.786 104.491 108.701 104.709 108.731 104.899C108.776 105.191 108.994 105.471 109.202 105.707C110.484 107.165 112.409 108.092 114.348 108.188C114.637 108.202 114.86 108.448 114.846 108.737C114.832 109.017 114.6 109.234 114.323 109.234Z" fill="#3A3A3A"/>
<path d="M205.3 41.8875L204.19 51.6704C203.901 54.2157 201.709 56.1034 199.149 56.0188L186.766 55.5903C183.912 55.4908 181.745 52.9752 182.069 50.1361L183.18 40.3534C183.468 37.813 185.66 35.9202 188.22 36.0099L200.603 36.4382C203.457 36.5328 205.624 39.0484 205.3 41.8875Z" fill="#FDFDFD"/>
<path d="M199.31 56.5452C199.25 56.5452 199.191 56.5442 199.132 56.5421L186.748 56.1131C185.243 56.0609 183.815 55.376 182.831 54.2334C181.845 53.0903 181.378 51.575 181.549 50.0766L182.66 40.2939C182.971 37.5629 185.32 35.4833 188.051 35.4833C188.113 35.4833 188.176 35.4843 188.239 35.4869L200.622 35.9153C202.125 35.9649 203.553 36.6479 204.538 37.7884C205.524 38.9315 205.992 40.4467 205.821 41.9467L204.71 51.7299C204.4 54.462 202.046 56.5452 199.31 56.5452ZM188.05 36.5303C185.847 36.5303 183.951 38.208 183.7 40.4125L182.589 50.1952C182.45 51.4221 182.817 52.6139 183.624 53.5499C184.43 54.4855 185.552 55.0242 186.785 55.0671L199.167 55.4961C201.486 55.5651 203.41 53.902 203.67 51.6117L204.781 41.828C204.92 40.6001 204.553 39.4084 203.745 38.4728C202.939 37.5388 201.817 37.0021 200.586 36.9612L188.203 36.5327C188.152 36.5312 188.101 36.5303 188.05 36.5303Z" fill="#3A3A3A"/>
<path d="M202.852 67.2284L201.741 77.0113C201.452 79.5566 199.261 81.4443 196.7 81.3598L184.317 80.9314C181.463 80.8318 179.297 78.3163 179.62 75.4771L180.731 65.6944C181.02 63.154 183.212 61.2612 185.772 61.351L198.155 61.7793C201.009 61.8739 203.176 64.3893 202.852 67.2284Z" fill="#FDFDFD"/>
<path d="M196.861 81.8864C196.802 81.8864 196.743 81.8854 196.683 81.8833L184.3 81.4548C182.794 81.4026 181.366 80.7172 180.382 79.5746C179.397 78.4315 178.93 76.9162 179.101 75.4183L180.211 65.6356C180.529 62.8413 182.989 60.7145 185.791 60.8281L198.173 61.2565C199.677 61.3061 201.105 61.9891 202.089 63.1296C203.076 64.2727 203.544 65.788 203.373 67.2879L202.262 77.0711C201.951 79.8032 199.597 81.8864 196.861 81.8864ZM185.602 61.8715C183.398 61.8715 181.502 63.5492 181.251 65.7542L180.14 75.5369C180.001 76.7638 180.368 77.9549 181.174 78.8909C181.981 79.8265 183.103 80.3652 184.336 80.4088L196.719 80.8373C199.033 80.9161 200.961 79.2439 201.221 76.9531L202.332 67.1693C202.472 65.9413 202.105 64.7496 201.297 63.8141C200.491 62.8801 199.369 62.3433 198.138 62.3024L185.755 61.8739C185.703 61.8726 185.653 61.8715 185.602 61.8715Z" fill="#3A3A3A"/>
<path d="M188.62 50.0025C188.457 50.0025 188.297 49.9268 188.194 49.7847C188.025 49.55 188.079 49.2229 188.314 49.0542L198.444 41.7678C198.679 41.5986 199.006 41.6523 199.175 41.8869C199.344 42.1216 199.291 42.4489 199.056 42.6176L188.925 49.9039C188.833 49.9703 188.726 50.0025 188.62 50.0025Z" fill="#3A3A3A"/>
<path d="M198.75 51.0393C198.623 51.0393 198.496 50.9933 198.395 50.9003L188.264 41.5403C188.052 41.344 188.038 41.0128 188.235 40.8005C188.432 40.5879 188.762 40.5751 188.975 40.7713L199.105 50.1313C199.318 50.3276 199.331 50.6589 199.135 50.8711C199.031 50.9825 198.891 51.0393 198.75 51.0393Z" fill="#3A3A3A"/>
<path d="M209.786 16.4043L208.675 26.1871C208.386 28.7324 206.194 30.6202 203.634 30.5355L191.251 30.107C188.397 30.0075 186.23 27.4919 186.554 24.6528L187.665 14.8701C187.954 12.3297 190.145 10.4369 192.706 10.5266L205.089 10.9549C207.943 11.0495 210.11 13.5651 209.786 16.4043Z" fill="#FDFDFD"/>
<path d="M203.795 31.0619C203.736 31.0619 203.677 31.0609 203.617 31.0588L191.234 30.6298C189.728 30.5776 188.3 29.8927 187.316 28.7501C186.331 27.607 185.863 26.0917 186.035 24.5933L187.146 14.8106C187.456 12.0796 189.805 10 192.536 10C192.599 10 192.662 10.001 192.725 10.0036L205.107 10.432C206.61 10.4816 208.038 11.1646 209.023 12.3051C210.01 13.4482 210.477 14.9635 210.306 16.4634L209.195 26.2466C208.885 28.9787 206.531 31.0619 203.795 31.0619ZM192.536 11.047C190.332 11.047 188.436 12.7248 188.185 14.9292L187.074 24.7119C186.935 25.9389 187.302 27.1306 188.109 28.0666C188.915 29.0022 190.038 29.5409 191.27 29.5838L203.652 30.0128C205.972 30.0818 207.895 28.4187 208.155 26.1284L209.266 16.3448C209.406 15.1168 209.038 13.9251 208.23 12.9896C207.424 12.0555 206.303 11.5188 205.072 11.4779L192.688 11.0494C192.637 11.048 192.586 11.047 192.536 11.047Z" fill="#3A3A3A"/>
<path d="M193.105 24.5192C192.942 24.5192 192.782 24.4435 192.68 24.3014C192.511 24.0668 192.564 23.7396 192.799 23.5709L202.93 16.2846C203.164 16.1154 203.492 16.169 203.66 16.4037C203.83 16.6383 203.776 16.9656 203.541 17.1343L193.41 24.4206C193.318 24.4871 193.211 24.5192 193.105 24.5192Z" fill="#3A3A3A"/>
<path d="M203.235 25.556C203.108 25.556 202.981 25.51 202.88 25.417L192.749 16.057C192.537 15.8607 192.524 15.5295 192.72 15.3173C192.917 15.1047 193.248 15.0918 193.46 15.2881L203.591 24.648C203.803 24.8443 203.816 25.1757 203.62 25.3878C203.517 25.4992 203.376 25.556 203.235 25.556Z" fill="#3A3A3A"/>
<path d="M186.171 75.5227C186.009 75.5227 185.848 75.447 185.746 75.3049C185.577 75.0703 185.63 74.7431 185.865 74.5744L195.996 67.2874C196.231 67.1192 196.559 67.1719 196.727 67.4065C196.896 67.6412 196.842 67.9683 196.608 68.137L186.476 75.424C186.384 75.4906 186.277 75.5227 186.171 75.5227Z" fill="#3A3A3A"/>
<path d="M196.302 76.5589C196.175 76.5589 196.047 76.5128 195.947 76.4198L185.815 67.0599C185.603 66.8636 185.59 66.5329 185.786 66.3201C185.982 66.1074 186.314 66.0946 186.526 66.2909L196.657 75.6509C196.869 75.8472 196.883 76.1779 196.686 76.3906C196.583 76.5021 196.443 76.5589 196.302 76.5589Z" fill="#3A3A3A"/>
<path d="M267.697 30.2096C267.688 30.2096 267.678 30.2096 267.669 30.2091L216.956 27.4827C216.667 27.4668 216.446 27.2205 216.461 26.9315C216.477 26.6427 216.733 26.4177 217.012 26.4367L267.725 29.1631C268.014 29.1789 268.235 29.4252 268.22 29.7142C268.205 29.9932 267.973 30.2096 267.697 30.2096Z" fill="#3A3A3A"/>
<path d="M284.325 48.6094C284.315 48.6094 284.306 48.6094 284.296 48.6089L271.541 47.9228C271.252 47.907 271.031 47.6607 271.046 47.3717C271.062 47.0829 271.316 46.8579 271.597 46.8768L284.353 47.5629C284.641 47.5787 284.863 47.8251 284.847 48.1141C284.832 48.3932 284.601 48.6094 284.325 48.6094Z" fill="#3A3A3A"/>
<path d="M256.921 47.1361C256.911 47.1361 256.902 47.1361 256.892 47.1356L215.094 44.8882C214.805 44.8724 214.584 44.6261 214.599 44.3371C214.615 44.0483 214.868 43.8197 215.151 43.8422L256.949 46.0896C257.237 46.1054 257.459 46.3518 257.443 46.6407C257.428 46.9199 257.197 47.1361 256.921 47.1361Z" fill="#3A3A3A"/>
<path d="M225.212 53.9409C225.203 53.9409 225.194 53.9409 225.184 53.9405L214.071 53.3428C213.782 53.327 213.561 53.0806 213.576 52.7916C213.592 52.5024 213.845 52.2877 214.127 52.2968L225.24 52.8944C225.529 52.9103 225.75 53.1566 225.735 53.4456C225.72 53.7248 225.488 53.9409 225.212 53.9409Z" fill="#3A3A3A"/>
<path d="M243.767 72.444C243.757 72.444 243.748 72.444 243.739 72.4436L212.209 70.7483C211.92 70.7325 211.699 70.4861 211.714 70.1972C211.73 69.9079 211.98 69.6896 212.265 69.7023L243.795 71.3975C244.084 71.4134 244.305 71.6597 244.29 71.9487C244.274 72.2279 244.043 72.444 243.767 72.444Z" fill="#3A3A3A"/>
<path d="M261.927 81.9297C261.917 81.9297 261.908 81.9297 261.898 81.9293L249.695 81.2733C249.407 81.2575 249.185 81.0112 249.2 80.7222C249.216 80.4329 249.461 80.2182 249.752 80.2273L261.954 80.8832C262.243 80.8991 262.465 81.1454 262.449 81.4344C262.434 81.7136 262.203 81.9297 261.927 81.9297Z" fill="#3A3A3A"/>
<path d="M237.863 80.6364C237.853 80.6364 237.844 80.6364 237.834 80.6359L211.186 79.2031C210.897 79.1872 210.675 78.9409 210.691 78.6519C210.707 78.3631 210.957 78.1427 211.242 78.157L237.891 79.5901C238.18 79.6059 238.401 79.8523 238.386 80.1412C238.37 80.4202 238.139 80.6364 237.863 80.6364Z" fill="#3A3A3A"/>
<path d="M15.1729 97.9686H72.4414C80.5494 97.9687 87.1211 104.541 87.1211 112.641C87.121 116.695 85.4769 120.362 82.8232 123.023C80.1624 125.677 76.495 127.321 72.4414 127.321H70.2559L70.2148 127.775L69.4082 136.588L57.7168 127.428L57.5811 127.321H15.1729C7.07213 127.321 0.500103 120.75 0.5 112.641C0.5 108.595 2.14293 104.926 4.79688 102.266L4.79785 102.266C7.45135 99.613 11.119 97.9686 15.1729 97.9686Z" stroke="#17485A"/>
<path d="M33.0986 120.02C30.1371 120.02 27.172 119.229 24.6725 117.669C23.4235 118.023 22.0305 118.104 20.6267 117.863C17.9786 117.412 15.5952 116.023 13.3816 114.639C13.1367 114.485 13.0621 114.163 13.2155 113.917C13.3684 113.672 13.6909 113.597 13.9368 113.751C16.062 115.08 18.3426 116.412 20.8026 116.832C21.7288 116.99 22.6466 116.993 23.5064 116.858C23.5059 116.857 23.5055 116.857 23.505 116.856C22.1452 115.805 21.2214 114.713 20.6815 113.517C19.9964 112 19.9964 110.326 20.6815 109.037C21.2751 107.92 22.4146 107.145 23.8071 106.91C25.3075 106.659 26.8137 107.072 27.836 108.02C29.7934 109.836 29.9571 113.233 28.1933 115.438C27.606 116.172 26.8305 116.765 25.9337 117.194C30.5006 119.682 36.4711 119.591 40.868 116.787C41.7003 116.257 42.4988 115.626 43.2707 115.016C43.9951 114.444 44.7445 113.852 45.5365 113.329C47.6039 111.962 49.5639 111.396 51.3615 111.648C52.7576 111.844 53.9805 112.523 55.1624 113.18C56.2437 113.781 57.265 114.348 58.3892 114.56C60.5476 114.964 62.7392 113.985 64.8572 113.035C65.2217 112.872 65.5835 112.71 65.944 112.555C67.991 111.677 71.7975 110.53 74.3055 112.72C74.5234 112.91 74.5459 113.241 74.3561 113.458C74.1654 113.677 73.8352 113.7 73.6173 113.508C71.5392 111.696 68.1765 112.735 66.3569 113.518C66.0016 113.67 65.6442 113.831 65.2855 113.991C63.0203 115.006 60.6783 116.054 58.1959 115.589C56.9045 115.346 55.7604 114.71 54.6542 114.095C53.5049 113.457 52.4195 112.854 51.2162 112.685C49.678 112.471 47.9624 112.981 46.1143 114.202C45.3592 114.702 44.6271 115.279 43.9196 115.838C43.1271 116.464 42.3077 117.111 41.4314 117.67C38.9633 119.243 36.0325 120.02 33.0986 120.02ZM24.6572 107.886C24.4328 107.886 24.2062 107.905 23.9809 107.943C22.9114 108.123 22.046 108.701 21.6058 109.528C21.0721 110.532 21.0834 111.863 21.6355 113.086C22.1037 114.122 22.9243 115.084 24.145 116.028C24.3689 116.201 24.598 116.366 24.8316 116.524C25.8642 116.157 26.7502 115.565 27.3754 114.784C28.7854 113.022 28.6678 110.22 27.1245 108.788C26.4998 108.209 25.5954 107.886 24.6572 107.886Z" fill="#3A3A3A"/>
<path d="M57.4476 49.2921L54.6626 41.5343L61.8863 39.1338L66.3251 47.03L57.4476 49.2921Z" fill="#3A3A3A"/>
<path d="M36.9271 146.094L34.1421 138.336L41.3658 135.936L45.8045 143.832L36.9271 146.094Z" fill="#17485A"/>
<path d="M153.558 35.0457L151.919 30.4806L156.17 29.068L158.782 33.7146L153.558 35.0457Z" fill="#17485A"/>
<path d="M258.058 145.844L256.419 141.279L260.67 139.866L263.282 144.513L258.058 145.844Z" fill="#3A3A3A"/>
<path d="M287.21 22.7492C287.2 22.7492 287.191 22.7492 287.181 22.7487L217.98 19.028C217.691 19.0122 217.469 18.7658 217.485 18.4769C217.5 18.1881 217.756 17.9647 218.036 17.982L287.237 21.7027C287.526 21.7185 287.748 21.9649 287.732 22.2539C287.717 22.5329 287.486 22.7492 287.21 22.7492Z" fill="#3A3A3A"/>
<defs>
<filter id="filter0_d_1725_2496" x="147.025" y="242.024" width="54.4542" height="54.4542" filterUnits="userSpaceOnUse" color-interpolation-filters="sRGB">
<feFlood flood-opacity="0" result="BackgroundImageFix"/>
<feColorMatrix in="SourceAlpha" type="matrix" values="0 0 0 0 0 0 0 0 0 0 0 0 0 0 0 0 0 0 127 0" result="hardAlpha"/>
<feOffset dx="-4" dy="4"/>
<feGaussianBlur stdDeviation="8.6"/>
<feComposite in2="hardAlpha" operator="out"/>
<feColorMatrix type="matrix" values="0 0 0 0 0 0 0 0 0 0 0 0 0 0 0 0 0 0 0.1 0"/>
<feBlend mode="normal" in2="BackgroundImageFix" result="effect1_dropShadow_1725_2496"/>
<feBlend mode="normal" in="SourceGraphic" in2="effect1_dropShadow_1725_2496" result="shape"/>
</filter>
<linearGradient id="paint0_linear_1725_2496" x1="178.481" y1="255" x2="178.481" y2="275.054" gradientUnits="userSpaceOnUse">
<stop stop-color="#17485A"/>
<stop offset="1" stop-color="#123240"/>
</linearGradient>
</defs>
</svg>
