<svg width="46" height="42" viewBox="0 0 46 42" fill="none" xmlns="http://www.w3.org/2000/svg">
<path d="M23.5897 9.88235H4.71795C3.46667 9.88235 2.26664 10.4029 1.38186 11.3296C0.497068 12.2562 0 13.513 0 14.8235V24.7059C0 26.0164 0.497068 27.2732 1.38186 28.1998C2.26664 29.1265 3.46667 29.6471 4.71795 29.6471H7.07692V39.5294C7.07692 40.1847 7.32546 40.8131 7.76785 41.2764C8.21025 41.7397 8.81026 42 9.4359 42H14.1538C14.7795 42 15.3795 41.7397 15.8219 41.2764C16.2643 40.8131 16.5128 40.1847 16.5128 39.5294V29.6471H23.5897L35.3846 39.5294V0L23.5897 9.88235ZM30.6667 28.6588L25.9487 24.7059H4.71795V14.8235H25.9487L30.6667 10.8706V28.6588ZM46 19.7647C46 23.9894 43.7354 27.8188 40.1026 29.6471V9.88235C43.7118 11.7353 46 15.5647 46 19.7647Z" fill="#153E4F"/>
</svg>
